<?xml version="1.0" encoding="UTF-8"?>
<!DOCTYPE svg PUBLIC "-//W3C//DTD SVG 1.1//EN" "http://www.w3.org/Graphics/SVG/1.1/DTD/svg11.dtd">
<svg xmlns="http://www.w3.org/2000/svg" version="1.1" width="150px" height="58px" style="shape-rendering:geometricPrecision; text-rendering:geometricPrecision; image-rendering:optimizeQuality; fill-rule:evenodd; clip-rule:evenodd" xmlns:xlink="http://www.w3.org/1999/xlink">
<g><path style="opacity:0.845" fill="#962eaa" d="M 22.5,-0.5 C 24.1667,-0.5 25.8333,-0.5 27.5,-0.5C 28.1667,0.166667 28.8333,0.833333 29.5,1.5C 27.8333,2.5 26.5,3.83333 25.5,5.5C 19.0305,8.90239 12.6972,12.5691 6.5,16.5C 5.51592,19.4281 5.18259,22.4281 5.5,25.5C 3.5,27.1667 1.5,28.8333 -0.5,30.5C -0.5,24.5 -0.5,18.5 -0.5,12.5C 7.42802,8.55894 15.0947,4.22561 22.5,-0.5 Z"/></g>
<g><path style="opacity:0.821" fill="#942da9" d="M 29.5,1.5 C 32.5396,2.68034 35.2063,4.347 37.5,6.5C 35.8333,7.5 34.5,8.83333 33.5,10.5C 30.4604,9.31966 27.7937,7.653 25.5,5.5C 26.5,3.83333 27.8333,2.5 29.5,1.5 Z"/></g>
<g><path style="opacity:0.825" fill="#922ca8" d="M 37.5,6.5 C 40.6461,6.79438 41.8128,8.46105 41,11.5C 38.2565,12.9175 35.7565,12.5841 33.5,10.5C 34.5,8.83333 35.8333,7.5 37.5,6.5 Z"/></g>
<g><path style="opacity:0.831" fill="#902ca7" d="M 49.5,13.5 C 43.8333,19.5 38.1667,25.5 32.5,31.5C 30.6096,31.2965 29.1096,31.9632 28,33.5C 27.6667,36.1667 27.3333,38.8333 27,41.5C 25.0624,42.8602 23.3957,42.5268 22,40.5C 21.5005,34.1754 21.3338,27.8421 21.5,21.5C 23.5,19.8333 25.5,18.1667 27.5,16.5C 27.3359,19.1873 27.5026,21.854 28,24.5C 30.0639,25.5914 32.2305,25.7581 34.5,25C 38.5,21 42.5,17 46.5,13C 47.7494,12.2599 48.7494,12.4265 49.5,13.5 Z"/></g>
<g><path style="opacity:0.72" fill="#8e2ba5" d="M 76.5,12.5 C 84.4027,13.693 86.5694,18.0264 83,25.5C 73.4803,28.9881 69.8137,25.6548 72,15.5C 73.4087,14.2189 74.9087,13.2189 76.5,12.5 Z M 75.5,16.5 C 80.3276,16.3852 81.6609,18.5519 79.5,23C 74.8197,23.1626 73.4863,20.9959 75.5,16.5 Z"/></g>
<g><path style="opacity:0.841" fill="#8c2aa4" d="M 49.5,13.5 C 50.709,15.4346 50.5423,17.4346 49,19.5C 45.7829,22.3805 42.9495,25.5471 40.5,29C 43.2839,32.787 46.4506,36.287 50,39.5C 50.6667,40.8333 50.6667,42.1667 50,43.5C 42.3519,48.0665 34.8519,52.7331 27.5,57.5C 25.8333,57.5 24.1667,57.5 22.5,57.5C 19.4512,55.1373 16.1178,53.1373 12.5,51.5C 13.8333,49.8333 15.1667,48.1667 16.5,46.5C 19.2235,48.2812 22.0568,49.9479 25,51.5C 30.4184,48.207 35.9184,45.0403 41.5,42C 42.4506,41.2825 42.6172,40.4491 42,39.5C 38.6675,36.9983 35.5008,34.3316 32.5,31.5C 38.1667,25.5 43.8333,19.5 49.5,13.5 Z"/></g>
<g><path style="opacity:0.739" fill="#8d2ba5" d="M 59.5,13.5 C 60.8333,13.5 62.1667,13.5 63.5,13.5C 63.443,17.1331 64.443,17.2998 66.5,14C 67.8333,13.3333 69.1667,13.3333 70.5,14C 69.3601,15.9734 68.0267,17.8067 66.5,19.5C 67.8333,21.5 69.1667,23.5 70.5,25.5C 69.277,26.6139 67.9437,26.7805 66.5,26C 64.3323,21.3009 63.3323,21.4676 63.5,26.5C 62.1667,26.5 60.8333,26.5 59.5,26.5C 59.5,22.1667 59.5,17.8333 59.5,13.5 Z"/></g>
<g><path style="opacity:0.833" fill="#8d2ba5" d="M 86.5,13.5 C 89.1873,13.3359 91.854,13.5026 94.5,14C 97.1589,19.1713 95.4922,22.0046 89.5,22.5C 89.5,23.8333 89.5,25.1667 89.5,26.5C 88.5,26.5 87.5,26.5 86.5,26.5C 86.5,22.1667 86.5,17.8333 86.5,13.5 Z M 89.5,16.5 C 92.9571,16.6672 93.2904,17.6672 90.5,19.5C 89.6143,18.675 89.281,17.675 89.5,16.5 Z"/></g>
<g><path style="opacity:0.767" fill="#8d2ba5" d="M 100.5,13.5 C 102.167,13.5 103.833,13.5 105.5,13.5C 106.253,17.6772 107.586,21.6772 109.5,25.5C 107.37,26.7771 105.704,26.2771 104.5,24C 103.207,23.51 101.873,23.3433 100.5,23.5C 100.5,24.5 100.5,25.5 100.5,26.5C 99.1667,26.5 97.8333,26.5 96.5,26.5C 97.4345,22.0307 98.7679,17.6973 100.5,13.5 Z M 102.5,18.5 C 103.773,19.0768 103.773,19.7435 102.5,20.5C 101.537,20.0302 101.537,19.3635 102.5,18.5 Z"/></g>
<g><path style="opacity:0.84" fill="#8d2ba5" d="M 110.5,13.5 C 111.5,13.5 112.5,13.5 113.5,13.5C 113.5,16.8333 113.5,20.1667 113.5,23.5C 115.5,23.5 117.5,23.5 119.5,23.5C 119.5,24.5 119.5,25.5 119.5,26.5C 116.5,26.5 113.5,26.5 110.5,26.5C 110.5,22.1667 110.5,17.8333 110.5,13.5 Z"/></g>
<g><path style="opacity:0.737" fill="#8d2ba5" d="M 120.5,13.5 C 122.199,13.3398 123.866,13.5065 125.5,14C 126.794,16.087 127.961,18.2537 129,20.5C 129.497,18.1902 129.663,15.8568 129.5,13.5C 130.833,13.5 132.167,13.5 133.5,13.5C 133.5,17.8333 133.5,22.1667 133.5,26.5C 131.801,26.6602 130.134,26.4935 128.5,26C 126.623,23.7487 125.123,21.2487 124,18.5C 123.503,21.146 123.336,23.8127 123.5,26.5C 122.5,26.5 121.5,26.5 120.5,26.5C 120.5,22.1667 120.5,17.8333 120.5,13.5 Z"/></g>
<g><path style="opacity:0.7" fill="#8d2ba5" d="M 135.5,13.5 C 136.833,13.5 138.167,13.5 139.5,13.5C 139.5,17.8333 139.5,22.1667 139.5,26.5C 138.167,26.5 136.833,26.5 135.5,26.5C 135.5,22.1667 135.5,17.8333 135.5,13.5 Z"/></g>
<g><path style="opacity:0.772" fill="#8d2ba5" d="M 149.5,13.5 C 149.5,14.5 149.5,15.5 149.5,16.5C 144.167,17.1667 144.167,17.8333 149.5,18.5C 149.5,19.5 149.5,20.5 149.5,21.5C 144.167,22.1667 144.167,22.8333 149.5,23.5C 149.5,24.5 149.5,25.5 149.5,26.5C 146.833,26.5 144.167,26.5 141.5,26.5C 141.5,22.1667 141.5,17.8333 141.5,13.5C 144.167,13.5 146.833,13.5 149.5,13.5 Z"/></g>
<g><path style="opacity:0.657" fill="#932da9" d="M 27.5,16.5 C 25.5,18.1667 23.5,19.8333 21.5,21.5C 20.5272,16.9943 22.1939,14.8276 26.5,15C 27.056,15.3826 27.3893,15.8826 27.5,16.5 Z"/></g>
<g><path style="opacity:0.837" fill="#942da9" d="M 5.5,25.5 C 5.5,29.8333 5.5,34.1667 5.5,38.5C 3.5,40.1667 1.5,41.8333 -0.5,43.5C -0.5,39.1667 -0.5,34.8333 -0.5,30.5C 1.5,28.8333 3.5,27.1667 5.5,25.5 Z"/></g>
<g><path style="opacity:0.736" fill="#8e2ba5" d="M 126.5,35.5 C 130.256,30.8599 134.422,30.5266 139,34.5C 141.294,44.3783 137.794,47.7116 128.5,44.5C 126.73,41.8066 126.063,38.8066 126.5,35.5 Z M 132.5,34.5 C 137.174,36.8053 137.508,39.472 133.5,42.5C 131.261,42.4257 130.261,41.259 130.5,39C 130.519,37.167 131.185,35.667 132.5,34.5 Z"/></g>
<g><path style="opacity:0.732" fill="#8d2ba5" d="M 69.5,32.5 C 70.8333,32.5 72.1667,32.5 73.5,32.5C 73.443,36.1331 74.443,36.2998 76.5,33C 77.8333,32.3333 79.1667,32.3333 80.5,33C 79.5467,34.9552 78.2134,36.6218 76.5,38C 77.7079,40.2503 79.0413,42.417 80.5,44.5C 79.277,45.6139 77.9437,45.7805 76.5,45C 74.3323,40.3009 73.3323,40.4676 73.5,45.5C 72.1667,45.5 70.8333,45.5 69.5,45.5C 69.5,41.1667 69.5,36.8333 69.5,32.5 Z"/></g>
<g><path style="opacity:0.737" fill="#8d2ba5" d="M 81.5,32.5 C 84.7766,32.2161 87.9433,32.5495 91,33.5C 91.8959,36.025 91.3959,38.1917 89.5,40C 90.376,41.586 91.376,43.086 92.5,44.5C 91.277,45.6139 89.9437,45.7805 88.5,45C 86.2165,38.9086 85.2165,39.0753 85.5,45.5C 84.1667,45.5 82.8333,45.5 81.5,45.5C 81.5,41.1667 81.5,36.8333 81.5,32.5 Z M 85.5,35.5 C 87.337,35.6395 87.6704,36.3061 86.5,37.5C 85.7025,37.0431 85.3691,36.3764 85.5,35.5 Z"/></g>
<g><path style="opacity:0.725" fill="#8d2ba5" d="M 92.5,32.5 C 95.4797,32.2411 97.313,33.5744 98,36.5C 99.0295,33.1247 101.196,31.9581 104.5,33C 101.117,36.4819 99.7841,40.6486 100.5,45.5C 99.1667,45.5 97.8333,45.5 96.5,45.5C 96.0383,40.907 94.705,36.5737 92.5,32.5 Z"/></g>
<g><path style="opacity:0.876" fill="#8e2ba5" d="M 115.5,35.5 C 114.99,39.6797 112.656,41.6797 108.5,41.5C 108.5,42.8333 108.5,44.1667 108.5,45.5C 107.5,45.5 106.5,45.5 105.5,45.5C 105.5,41.1667 105.5,36.8333 105.5,32.5C 108.187,32.3359 110.854,32.5026 113.5,33C 114.066,33.9947 114.733,34.828 115.5,35.5 Z M 108.5,35.5 C 111.957,35.6672 112.29,36.6672 109.5,38.5C 108.614,37.675 108.281,36.675 108.5,35.5 Z"/></g>
<g><path style="opacity:0.716" fill="#8d2ba5" d="M 126.5,35.5 C 125.167,35.5 123.833,35.5 122.5,35.5C 122.5,38.8333 122.5,42.1667 122.5,45.5C 121.167,45.5 119.833,45.5 118.5,45.5C 118.5,42.1667 118.5,38.8333 118.5,35.5C 117.5,35.5 116.5,35.5 115.5,35.5C 115.5,34.5 115.5,33.5 115.5,32.5C 119.167,32.5 122.833,32.5 126.5,32.5C 126.5,33.5 126.5,34.5 126.5,35.5 Z"/></g>
<g><path style="opacity:0.81" fill="#912ca7" d="M 5.5,38.5 C 5.93709,40.0744 6.93709,41.2411 8.5,42C 11.3559,43.2587 14.0226,44.7587 16.5,46.5C 15.1667,48.1667 13.8333,49.8333 12.5,51.5C 8.40159,48.736 4.06825,46.4027 -0.5,44.5C -0.5,44.1667 -0.5,43.8333 -0.5,43.5C 1.5,41.8333 3.5,40.1667 5.5,38.5 Z"/></g>
</svg>
