<?xml version="1.0" encoding="UTF-8"?>
<!DOCTYPE svg PUBLIC "-//W3C//DTD SVG 1.1//EN" "http://www.w3.org/Graphics/SVG/1.1/DTD/svg11.dtd">
<svg xmlns="http://www.w3.org/2000/svg" version="1.1" width="384px" height="384px" style="shape-rendering:geometricPrecision; text-rendering:geometricPrecision; image-rendering:optimizeQuality; fill-rule:evenodd; clip-rule:evenodd" xmlns:xlink="http://www.w3.org/1999/xlink">
<g><path style="opacity:0.997" fill="#962eaa" d="M 187.5,-0.5 C 190.167,-0.5 192.833,-0.5 195.5,-0.5C 202.478,3.46422 209.478,7.46422 216.5,11.5C 207.833,20.5 199.167,29.5 190.5,38.5C 188.436,38.687 186.436,39.187 184.5,40C 144.33,63.5859 103.997,86.9193 63.5,110C 60.8941,111.938 59.0608,114.438 58,117.5C 57.5001,135.497 57.3334,153.497 57.5,171.5C 46.0927,182.576 34.7593,193.576 23.5,204.5C 23.3333,169.165 23.5,133.832 24,98.5C 25.3999,95.0976 27.5665,92.2643 30.5,90C 82.8961,59.8064 135.229,29.6398 187.5,-0.5 Z"/></g>
<g><path style="opacity:0.996" fill="#942da9" d="M 216.5,11.5 C 235.202,22.5148 253.869,33.5148 272.5,44.5C 264.833,52.8333 256.833,60.8333 248.5,68.5C 231.725,59.2767 215.059,49.7767 198.5,40C 195.937,38.9207 193.271,38.4207 190.5,38.5C 199.167,29.5 207.833,20.5 216.5,11.5 Z"/></g>
<g><path style="opacity:0.994" fill="#922ca8" d="M 272.5,44.5 C 281.702,48.6858 290.202,54.0191 298,60.5C 301.418,74.6405 295.918,83.3071 281.5,86.5C 269.706,81.7732 258.706,75.7732 248.5,68.5C 256.833,60.8333 264.833,52.8333 272.5,44.5 Z"/></g>
<g><path style="opacity:0.998" fill="#902ca7" d="M 353.5,91.5 C 314.692,131.644 275.359,171.644 235.5,211.5C 214.167,208.167 205.167,217.167 208.5,238.5C 197.5,248.833 186.833,259.5 176.5,270.5C 175.732,269.737 175.232,268.737 175,267.5C 174.5,226.168 174.333,184.835 174.5,143.5C 185.581,133.086 196.248,122.419 206.5,111.5C 207.09,112.766 207.59,114.099 208,115.5C 208.333,132.5 208.667,149.5 209,166.5C 210.702,172.864 214.868,176.364 221.5,177C 230.167,177.667 238.833,177.667 247.5,177C 250.376,176.562 253.043,175.562 255.5,174C 282.139,146.693 308.806,119.36 335.5,92C 341.483,87.5882 347.483,87.4216 353.5,91.5 Z"/></g>
<g><path style="opacity:1" fill="#8e2ca6" d="M 353.5,91.5 C 354.5,91.8333 355.167,92.5 355.5,93.5C 315.833,132.5 276.5,171.833 237.5,211.5C 236.833,211.5 236.167,211.5 235.5,211.5C 275.359,171.644 314.692,131.644 353.5,91.5 Z"/></g>
<g><path style="opacity:0.997" fill="#8c2aa4" d="M 355.5,93.5 C 358.456,96.0922 359.789,99.4255 359.5,103.5C 359.395,108.92 357.895,113.92 355,118.5C 334.365,140.803 313.365,162.803 292,184.5C 288.667,190.5 288.667,196.5 292,202.5C 313.945,223.444 335.612,244.778 357,266.5C 361.659,278.193 358.826,287.693 348.5,295C 297.437,324.527 246.437,354.027 195.5,383.5C 192.833,383.5 190.167,383.5 187.5,383.5C 161.669,368.752 136.003,353.752 110.5,338.5C 118.833,330.5 127.167,322.5 135.5,314.5C 153.025,324.511 170.692,334.344 188.5,344C 190.5,344.667 192.5,344.667 194.5,344C 233.539,322.732 272.039,300.565 310,277.5C 312.202,273.258 311.869,269.258 309,265.5C 291.833,249 274.667,232.5 257.5,216C 251.503,211.899 244.837,210.399 237.5,211.5C 276.5,171.833 315.833,132.5 355.5,93.5 Z"/></g>
<g><path style="opacity:0.992" fill="#932da9" d="M 206.5,111.5 C 196.248,122.419 185.581,133.086 174.5,143.5C 174.334,134.161 174.5,124.827 175,115.5C 177.536,107.468 183.036,103.468 191.5,103.5C 198.14,103.317 203.14,105.984 206.5,111.5 Z"/></g>
<g><path style="opacity:1" fill="#942da9" d="M 57.5,171.5 C 57.5,201.5 57.5,231.5 57.5,261.5C 47.5,270.833 37.8333,280.5 28.5,290.5C 26.2918,289.106 24.7918,287.106 24,284.5C 23.5,257.835 23.3334,231.169 23.5,204.5C 34.7593,193.576 46.0927,182.576 57.5,171.5 Z"/></g>
<g><path style="opacity:1" fill="#8e2ca6" d="M 208.5,238.5 C 208.5,239.167 208.5,239.833 208.5,240.5C 197.391,250.606 187.058,261.273 177.5,272.5C 176.662,272.158 176.328,271.492 176.5,270.5C 186.833,259.5 197.5,248.833 208.5,238.5 Z"/></g>
<g><path style="opacity:1" fill="#8e2ba6" d="M 208.5,240.5 C 208.666,249.506 208.5,258.506 208,267.5C 205.458,275.525 199.958,279.192 191.5,278.5C 185.586,279.205 180.92,277.205 177.5,272.5C 187.058,261.273 197.391,250.606 208.5,240.5 Z"/></g>
<g><path style="opacity:0.997" fill="#912ca7" d="M 57.5,261.5 C 57.6808,265.695 59.3475,269.195 62.5,272C 86.3358,285.697 110.002,299.53 133.5,313.5C 125.167,321.5 116.833,329.5 108.5,337.5C 81.4689,322.323 54.8022,306.656 28.5,290.5C 37.8333,280.5 47.5,270.833 57.5,261.5 Z"/></g>
<g><path style="opacity:0.99" fill="#8e2ca6" d="M 133.5,313.5 C 134.492,313.328 135.158,313.662 135.5,314.5C 127.167,322.5 118.833,330.5 110.5,338.5C 109.508,338.672 108.842,338.338 108.5,337.5C 116.833,329.5 125.167,321.5 133.5,313.5 Z"/></g>
</svg>
