<?xml version="1.0" encoding="UTF-8" standalone="no"?>
<svg
   width="49"
   height="64"
   viewBox="0 0 49 64"
   fill="none"
   version="1.1"
   id="svg1"
   xmlns="http://www.w3.org/2000/svg"
   xmlns:svg="http://www.w3.org/2000/svg">
  <defs
     id="defs1" />
  <path
     fill-rule="evenodd"
     clip-rule="evenodd"
     d="M 10.0842,22.0851 20.1069,-3.23439e-6 34.2218,19.7224 Z m 6.5067,-4.6567 4.2954,-9.46507 6.0493,8.45247 z m 20.0937,12.4384 c -3.3143,0 -6.001,2.6868 -6.001,6.0011 0,3.3143 2.6867,6.001 6.001,6.001 3.3143,0 6.001,-2.6867 6.001,-6.001 0,-3.3143 -2.6867,-6.0011 -6.001,-6.0011 z m -10.0017,6.0011 c 0,-5.5238 4.4779,-10.0018 10.0017,-10.0018 5.5238,0 10.0017,4.478 10.0017,10.0018 0,5.5238 -4.4779,10.0017 -10.0017,10.0017 -5.5238,0 -10.0017,-4.4779 -10.0017,-10.0017 z M 13.6805,46.4884 8.15328,49.6796 v 6.3823 l 5.52722,3.1911 5.5273,-3.1911 v -6.3823 z m 9.528,0.8814 -9.528,-5.501 -9.52791,5.501 v 11.0019 l 9.52791,5.501 9.528,-5.501 z M 24.8518,28.7167 2.73853,42.5649 0.618164,39.1724 22.7314,25.3242 Z M 27.6793,50.8965 46.3948,61.7542 48.4024,58.2937 29.6869,47.436 Z"
     fill="#3AAC59"
     id="path1"
     style="fill:#853aac;fill-opacity:1" />
</svg>
