<?xml version="1.0" encoding="UTF-8" standalone="no"?>
<svg
   width="56"
   height="64"
   viewBox="0 0 56 64"
   fill="none"
   version="1.1"
   id="svg1"
   xmlns="http://www.w3.org/2000/svg"
   xmlns:svg="http://www.w3.org/2000/svg">
  <defs
     id="defs1" />
  <path
     fill-rule="evenodd"
     clip-rule="evenodd"
     d="m 24,2.24443 c 1.9522,-1.12706 2.9282,-1.690597 4,-1.690597 1.0718,0 2.0479,0.563537 4,1.690597 L 51.7129,13.6256 c 1.9521,1.1271 2.9282,1.6906 3.4641,2.6188 0.5359,0.9282 0.5359,2.0553 0.5359,4.3094 v 22.7624 c 0,2.2542 0,3.3812 -0.5359,4.3094 -0.5359,0.9282 -1.512,1.4918 -3.4641,2.6188 L 32,61.6256 c -1.9521,1.1271 -2.9282,1.6906 -4,1.6906 -1.0718,0 -2.0478,-0.5635 -4,-1.6906 L 4.28723,50.2444 C 2.3351,49.1174 1.35903,48.5538 0.82313,47.6256 0.287231,46.6974 0.287231,45.5704 0.287231,43.3162 V 20.5538 c 0,-2.2541 0,-3.3812 0.535899,-4.3094 0.5359,-0.9282 1.51197,-1.4917 3.4641,-2.6188 z M 49.1799,16.782 30,5.70853 C 28.9566,5.1061 28.4207,4.80186 28.0194,4.62007 L 28,4.61137 27.9807,4.62007 C 27.5794,4.80186 27.0435,5.1061 26,5.70853 L 6.39274,17.0288 27.9812,28.6534 Z M 4.28725,20.4381 c -1e-5,0.038 -2e-5,0.0765 -2e-5,0.1157 v 22.7624 c 0,1.2049 0.00448,1.8211 0.0477,2.2596 l 0.00213,0.0211 0.01721,0.0124 c 0.35809,0.2566 0.88952,0.5686 1.93296,1.171 L 26,58.1615 V 32.1296 Z M 30,58.1615 49.7129,46.7803 c 1.0434,-0.6024 1.5748,-0.9144 1.9329,-1.171 l 0.0172,-0.0124 0.0022,-0.0211 c 0.0432,-0.4385 0.0477,-1.0547 0.0477,-2.2596 V 20.5538 c 0,-0.2207 -2e-4,-0.4216 -7e-4,-0.6053 L 30,32.1073 Z"
     fill="#3AAC59"
     id="path1"
     style="fill:#853aac;fill-opacity:1" />
</svg>
