<?xml version="1.0" encoding="UTF-8" standalone="no"?>
<svg
   width="64"
   height="49"
   viewBox="0 0 64 49"
   fill="none"
   version="1.1"
   id="svg1"
   xmlns="http://www.w3.org/2000/svg"
   xmlns:svg="http://www.w3.org/2000/svg">
  <defs
     id="defs1" />
  <path
     fill-rule="evenodd"
     clip-rule="evenodd"
     d="m 24,4.93506 h 16 c 5.7699,0 9.695,0.00849 12.6343,0.40367 2.8242,0.37971 4.1323,1.04919 5.0226,1.93947 0.8902,0.89029 1.5597,2.19837 1.9394,5.0226 C 59.9915,15.2401 60,19.1651 60,24.9351 c 0,5.7699 -0.0085,9.695 -0.4037,12.6342 -0.3797,2.8242 -1.0492,4.1323 -1.9394,5.0226 -0.8903,0.8903 -2.1984,1.5598 -5.0226,1.9395 C 49.695,44.9266 45.7699,44.9351 40,44.9351 H 24 c -5.7699,0 -9.695,-0.0085 -12.6343,-0.4037 C 8.54152,44.1517 7.23343,43.4822 6.34315,42.5919 5.45286,41.7016 4.78338,40.3935 4.40367,37.5693 4.00849,34.6301 4,30.705 4,24.9351 4,19.1651 4.00849,15.2401 4.40367,12.3008 4.78338,9.47657 5.45286,8.16849 6.34315,7.2782 7.23343,6.38792 8.54152,5.71844 11.3657,5.33873 14.305,4.94355 18.2301,4.93506 24,4.93506 Z M 0,24.9351 C 0,13.6214 0,7.9645 3.51472,4.44978 7.02944,0.935059 12.6863,0.935059 24,0.935059 h 16 c 11.3137,0 16.9706,0 20.4853,3.514721 C 64,7.9645 64,13.6214 64,24.9351 64,36.2488 64,41.9056 60.4853,45.4203 56.9706,48.9351 51.3137,48.9351 40,48.9351 H 24 c -11.3137,0 -16.97056,0 -20.48528,-3.5148 C 0,41.9056 0,36.2488 0,24.9351 Z M 24.8276,13.1143 C 24.2086,12.8329 23.489,12.8854 22.9172,13.2535 22.3455,13.6217 22,14.2551 22,14.9351 v 20 c 0,0.68 0.3455,1.3134 0.9172,1.6815 0.5718,0.3682 1.2914,0.4206 1.9104,0.1392 l 22,-10 C 47.5416,26.4313 48,25.7193 48,24.9351 48,24.1508 47.5416,23.4389 46.8276,23.1143 Z M 26,31.8291 v -13.788 l 15.1668,6.894 z"
     fill="#3AAC59"
     id="path1"
     style="fill:#853aac;fill-opacity:1" />
</svg>
