<?xml version="1.0" encoding="UTF-8"?>
<!DOCTYPE svg PUBLIC "-//W3C//DTD SVG 1.1//EN" "http://www.w3.org/Graphics/SVG/1.1/DTD/svg11.dtd">
<svg xmlns="http://www.w3.org/2000/svg" version="1.1" width="1230px" height="514px" style="shape-rendering:geometricPrecision; text-rendering:geometricPrecision; image-rendering:optimizeQuality; fill-rule:evenodd; clip-rule:evenodd" xmlns:xlink="http://www.w3.org/1999/xlink">
<g><path style="opacity:0.978" fill="#962eaa" d="M 239.5,33.5 C 227.78,44.2191 216.78,55.5524 206.5,67.5C 203.689,67.8257 201.022,68.6591 198.5,70C 148.997,98.9193 99.3301,127.586 49.5,156C 45.334,159.165 42.834,163.332 42,168.5C 41.5,189.831 41.3334,211.164 41.5,232.5C 27.5,246.167 13.5,259.833 -0.5,273.5C -0.5,229.167 -0.5,184.833 -0.5,140.5C 1.19065,136.992 3.52399,133.825 6.5,131C 71.6631,93.9194 136.663,56.5861 201.5,19C 205.833,18.3333 210.167,18.3333 214.5,19C 223.224,23.3551 231.557,28.1884 239.5,33.5 Z"/></g>
<g><path style="opacity:0.971" fill="#942da9" d="M 239.5,33.5 C 262.806,46.8215 286.139,60.1548 309.5,73.5C 299.447,84.5541 288.781,94.8874 277.5,104.5C 257.364,93.2645 237.364,81.7645 217.5,70C 214.077,68.0961 210.41,67.2628 206.5,67.5C 216.78,55.5524 227.78,44.2191 239.5,33.5 Z"/></g>
<g><path style="opacity:0.96" fill="#922ca8" d="M 309.5,73.5 C 318.473,78.6549 327.473,83.8215 336.5,89C 344.126,96.5935 345.293,105.094 340,114.5C 337.167,117.333 334.333,120.167 331.5,123C 325.488,126.71 319.155,127.376 312.5,125C 300.77,118.14 289.104,111.307 277.5,104.5C 288.781,94.8874 299.447,84.5541 309.5,73.5 Z"/></g>
<g><path style="opacity:0.973" fill="#902ca7" d="M 409.5,131.5 C 409.631,132.239 409.464,132.906 409,133.5C 360.272,183.061 311.439,232.394 262.5,281.5C 236.488,277.512 225.488,288.512 229.5,314.5C 215.833,327.833 202.167,341.167 188.5,354.5C 187.91,353.234 187.41,351.901 187,350.5C 186.5,299.168 186.333,247.834 186.5,196.5C 187.239,196.631 187.906,196.464 188.5,196C 201.196,183.638 213.53,170.971 225.5,158C 226.094,157.536 226.761,157.369 227.5,157.5C 228.09,158.766 228.59,160.099 229,161.5C 229.333,182.5 229.667,203.5 230,224.5C 232.072,232.573 237.239,237.073 245.5,238C 256.167,238.667 266.833,238.667 277.5,238C 281.29,237.77 284.624,236.437 287.5,234C 320.833,200 354.167,166 387.5,132C 394.714,127.513 402.047,127.347 409.5,131.5 Z"/></g>
<g><path style="opacity:0.954" fill="#8e2ba5" d="M 631.5,131.5 C 645.626,130.02 658.96,132.52 671.5,139C 682.424,146.667 688.924,157.167 691,170.5C 695.085,190.599 691.751,209.265 681,226.5C 674.458,234.023 666.291,238.857 656.5,241C 607.73,246.565 585.563,224.732 590,175.5C 593.151,150.521 606.985,135.854 631.5,131.5 Z M 634.5,151.5 C 651.494,148.906 661.994,155.906 666,172.5C 669.161,186.847 667.495,200.514 661,213.5C 654.145,221.011 645.645,223.844 635.5,222C 622.942,218.762 616.109,210.595 615,197.5C 613.693,186.588 614.693,175.921 618,165.5C 621.585,158.403 627.085,153.736 634.5,151.5 Z"/></g>
<g><path style="opacity:0.993" fill="#8f2ca6" d="M 409.5,131.5 C 410.833,132.167 411.833,133.167 412.5,134.5C 411.761,134.369 411.094,134.536 410.5,135C 361.817,183.577 313.484,232.41 265.5,281.5C 264.5,281.5 263.5,281.5 262.5,281.5C 311.439,232.394 360.272,183.061 409,133.5C 409.464,132.906 409.631,132.239 409.5,131.5 Z"/></g>
<g><path style="opacity:0.948" fill="#8e2ba5" d="M 831.5,132.5 C 841.416,132.181 851.25,132.514 861,133.5C 873.807,169.423 886.307,205.423 898.5,241.5C 890.16,241.666 881.827,241.5 873.5,241C 870.74,232.886 868.073,224.72 865.5,216.5C 852.833,215.167 840.167,215.167 827.5,216.5C 824.833,224.5 822.167,232.5 819.5,240.5C 811.193,241.498 802.86,241.831 794.5,241.5C 806.63,205.11 818.964,168.776 831.5,132.5 Z M 845.5,153.5 C 846.117,153.611 846.617,153.944 847,154.5C 850.866,167.93 855.032,181.264 859.5,194.5C 850.833,195.833 842.167,195.833 833.5,194.5C 838.317,181.051 842.317,167.384 845.5,153.5 Z"/></g>
<g><path style="opacity:0.944" fill="#8e2ba5" d="M 494.5,133.5 C 502.5,133.5 510.5,133.5 518.5,133.5C 518.333,148.837 518.5,164.17 519,179.5C 530.833,164.333 542.667,149.167 554.5,134C 563.5,133.333 572.5,133.333 581.5,134C 569.167,149.667 556.833,165.333 544.5,181C 557.25,201.016 569.583,221.183 581.5,241.5C 572.475,241.832 563.475,241.498 554.5,240.5C 545.531,225.7 536.365,211.034 527,196.5C 524.333,198.5 521.667,200.5 519,202.5C 518.5,215.496 518.333,228.496 518.5,241.5C 510.5,241.5 502.5,241.5 494.5,241.5C 494.5,205.5 494.5,169.5 494.5,133.5 Z"/></g>
<g><path style="opacity:0.951" fill="#8e2ba5" d="M 713.5,133.5 C 730.881,133.072 748.214,133.572 765.5,135C 783.683,141.846 791.183,155.012 788,174.5C 785.482,188.02 777.648,196.853 764.5,201C 755.611,202.959 746.611,203.793 737.5,203.5C 737.5,216.167 737.5,228.833 737.5,241.5C 729.5,241.5 721.5,241.5 713.5,241.5C 713.5,205.5 713.5,169.5 713.5,133.5 Z M 737.5,152.5 C 745.169,151.817 752.502,152.984 759.5,156C 766.383,164.282 766.049,172.282 758.5,180C 751.856,183.066 744.856,184.232 737.5,183.5C 737.5,173.167 737.5,162.833 737.5,152.5 Z"/></g>
<g><path style="opacity:0.965" fill="#8e2ba5" d="M 910.5,133.5 C 918.5,133.5 926.5,133.5 934.5,133.5C 934.5,162.833 934.5,192.167 934.5,221.5C 949.167,221.5 963.833,221.5 978.5,221.5C 978.5,228.167 978.5,234.833 978.5,241.5C 955.833,241.5 933.167,241.5 910.5,241.5C 910.5,205.5 910.5,169.5 910.5,133.5 Z"/></g>
<g><path style="opacity:0.956" fill="#8e2ba5" d="M 995.5,133.5 C 1005.75,133.181 1015.92,133.514 1026,134.5C 1041,160.167 1056,185.833 1071,211.5C 1070.56,185.529 1070.39,159.529 1070.5,133.5C 1077.5,133.5 1084.5,133.5 1091.5,133.5C 1091.5,169.5 1091.5,205.5 1091.5,241.5C 1081.48,241.832 1071.48,241.499 1061.5,240.5C 1046.33,214.167 1031.17,187.833 1016,161.5C 1017.2,188.098 1017.7,214.765 1017.5,241.5C 1010.17,241.5 1002.83,241.5 995.5,241.5C 995.5,205.5 995.5,169.5 995.5,133.5 Z"/></g>
<g><path style="opacity:0.938" fill="#8d2ba5" d="M 1117.5,133.5 C 1125.5,133.5 1133.5,133.5 1141.5,133.5C 1141.5,169.5 1141.5,205.5 1141.5,241.5C 1133.5,241.5 1125.5,241.5 1117.5,241.5C 1117.5,205.5 1117.5,169.5 1117.5,133.5 Z"/></g>
<g><path style="opacity:0.968" fill="#8e2ba5" d="M 1229.5,133.5 C 1229.5,139.833 1229.5,146.167 1229.5,152.5C 1216.83,152.5 1204.17,152.5 1191.5,152.5C 1191.5,160.167 1191.5,167.833 1191.5,175.5C 1203.5,175.5 1215.5,175.5 1227.5,175.5C 1227.5,181.833 1227.5,188.167 1227.5,194.5C 1215.5,194.5 1203.5,194.5 1191.5,194.5C 1191.5,203.5 1191.5,212.5 1191.5,221.5C 1204.17,221.5 1216.83,221.5 1229.5,221.5C 1229.5,228.167 1229.5,234.833 1229.5,241.5C 1208.83,241.5 1188.17,241.5 1167.5,241.5C 1167.5,205.5 1167.5,169.5 1167.5,133.5C 1188.17,133.5 1208.83,133.5 1229.5,133.5 Z"/></g>
<g><path style="opacity:0.975" fill="#8c2aa4" d="M 412.5,134.5 C 418.105,142.188 418.939,150.521 415,159.5C 414,161.5 413,163.5 412,165.5C 386.73,193.439 360.73,220.772 334,247.5C 328.466,254.58 328.133,261.913 333,269.5C 360.305,295.805 387.305,322.472 414,349.5C 420.049,365.681 415.549,378.181 400.5,387C 338.5,422.667 276.5,458.333 214.5,494C 207.751,495.331 201.418,494.331 195.5,491C 166.257,473.571 136.924,456.404 107.5,439.5C 117.5,428.833 127.833,418.5 138.5,408.5C 157.771,418.804 176.771,429.637 195.5,441C 200.359,444.401 205.692,445.734 211.5,445C 259.127,418.52 306.46,391.52 353.5,364C 356.721,359.788 357.221,355.288 355,350.5C 335.833,332 316.667,313.5 297.5,295C 292.789,290.62 287.789,286.62 282.5,283C 276.912,281.711 271.245,281.211 265.5,281.5C 313.484,232.41 361.817,183.577 410.5,135C 411.094,134.536 411.761,134.369 412.5,134.5 Z"/></g>
<g><path style="opacity:0.947" fill="#932da9" d="M 227.5,157.5 C 226.761,157.369 226.094,157.536 225.5,158C 213.53,170.971 201.196,183.638 188.5,196C 187.906,196.464 187.239,196.631 186.5,196.5C 186.333,185.162 186.5,173.828 187,162.5C 188.386,154.78 192.886,149.947 200.5,148C 208.2,146.666 215.533,147.666 222.5,151C 224.765,152.758 226.432,154.925 227.5,157.5 Z"/></g>
<g><path style="opacity:0.992" fill="#942da9" d="M 41.5,232.5 C 41.5,269.5 41.5,306.5 41.5,343.5C 29.1667,355.5 16.8333,367.5 4.5,379.5C 2.58793,377.343 0.921263,375.009 -0.5,372.5C -0.5,339.5 -0.5,306.5 -0.5,273.5C 13.5,259.833 27.5,246.167 41.5,232.5 Z"/></g>
<g><path style="opacity:0.958" fill="#8e2ba5" d="M 1087.5,286.5 C 1104.09,284.589 1119.09,288.422 1132.5,298C 1139.48,305.132 1143.98,313.632 1146,323.5C 1148.74,339.433 1147.74,355.1 1143,370.5C 1136.9,383.807 1126.74,392.307 1112.5,396C 1069.3,403.253 1046.64,385.086 1044.5,341.5C 1044.52,326.28 1049.02,312.613 1058,300.5C 1066.31,292.462 1076.14,287.795 1087.5,286.5 Z M 1091.5,306.5 C 1108.91,304.618 1119.08,312.284 1122,329.5C 1124.08,341.417 1123.08,353.084 1119,364.5C 1112.56,375.299 1103.06,379.466 1090.5,377C 1078.79,374.121 1072.29,366.621 1071,354.5C 1068.92,342.583 1069.92,330.916 1074,319.5C 1078.02,312.635 1083.85,308.302 1091.5,306.5 Z"/></g>
<g><path style="opacity:0.944" fill="#8e2ba5" d="M 576.5,288.5 C 584.5,288.5 592.5,288.5 600.5,288.5C 600.333,304.17 600.5,319.837 601,335.5C 612.259,319.739 624.093,304.405 636.5,289.5C 645.482,288.335 654.482,288.168 663.5,289C 651.167,304.667 638.833,320.333 626.5,336C 639.525,355.833 651.859,376 663.5,396.5C 654.475,396.832 645.475,396.498 636.5,395.5C 627.584,380.665 618.417,365.998 609,351.5C 606.512,353.743 603.846,355.743 601,357.5C 600.5,370.496 600.333,383.496 600.5,396.5C 592.5,396.5 584.5,396.5 576.5,396.5C 576.5,360.5 576.5,324.5 576.5,288.5 Z"/></g>
<g><path style="opacity:0.95" fill="#8e2ba5" d="M 676.5,288.5 C 693.209,288.092 709.876,288.592 726.5,290C 747.322,295.796 755.155,309.296 750,330.5C 746.278,338.889 740.445,345.389 732.5,350C 742.906,365.33 752.906,380.83 762.5,396.5C 753.827,396.666 745.16,396.5 736.5,396C 728.459,382.749 720.292,369.583 712,356.5C 708.27,355.54 704.437,355.207 700.5,355.5C 700.5,369.167 700.5,382.833 700.5,396.5C 692.5,396.5 684.5,396.5 676.5,396.5C 676.5,360.5 676.5,324.5 676.5,288.5 Z M 700.5,307.5 C 708.551,307.196 716.218,308.696 723.5,312C 729.011,318.942 728.678,325.609 722.5,332C 715.519,335.098 708.185,336.264 700.5,335.5C 700.5,326.167 700.5,316.833 700.5,307.5 Z"/></g>
<g><path style="opacity:0.954" fill="#8e2ba5" d="M 761.5,289.5 C 769.99,288.343 778.657,288.176 787.5,289C 794.794,303.089 801.961,317.256 809,331.5C 815.911,317.344 823.078,303.344 830.5,289.5C 839.147,288.335 847.814,288.168 856.5,289C 844.794,310.913 832.96,332.747 821,354.5C 820.5,368.496 820.333,382.496 820.5,396.5C 812.833,396.5 805.167,396.5 797.5,396.5C 797.667,382.496 797.5,368.496 797,354.5C 785.138,332.771 773.305,311.105 761.5,289.5 Z"/></g>
<g><path style="opacity:0.95" fill="#8e2ba5" d="M 868.5,288.5 C 885.875,288.088 903.209,288.588 920.5,290C 933.115,292.948 940.615,300.781 943,313.5C 945.233,325.555 942.9,336.555 936,346.5C 931.234,350.93 925.734,354.097 919.5,356C 910.611,357.959 901.611,358.793 892.5,358.5C 892.5,371.167 892.5,383.833 892.5,396.5C 884.5,396.5 876.5,396.5 868.5,396.5C 868.5,360.5 868.5,324.5 868.5,288.5 Z M 892.5,307.5 C 900.154,306.913 907.487,308.079 914.5,311C 918.302,314.064 919.969,318.064 919.5,323C 919.36,332.142 914.694,337.142 905.5,338C 901.179,338.499 896.846,338.666 892.5,338.5C 892.5,328.167 892.5,317.833 892.5,307.5 Z"/></g>
<g><path style="opacity:0.941" fill="#8d2ba5" d="M 952.5,288.5 C 979.833,288.5 1007.17,288.5 1034.5,288.5C 1034.5,295.167 1034.5,301.833 1034.5,308.5C 1024.83,308.5 1015.17,308.5 1005.5,308.5C 1005.5,337.833 1005.5,367.167 1005.5,396.5C 997.5,396.5 989.5,396.5 981.5,396.5C 981.5,367.167 981.5,337.833 981.5,308.5C 971.833,308.5 962.167,308.5 952.5,308.5C 952.5,301.833 952.5,295.167 952.5,288.5 Z"/></g>
<g><path style="opacity:0.978" fill="#8e2ca6" d="M 229.5,314.5 C 229.5,315.5 229.5,316.5 229.5,317.5C 216.167,330.5 202.833,343.5 189.5,356.5C 189.167,355.833 188.833,355.167 188.5,354.5C 202.167,341.167 215.833,327.833 229.5,314.5 Z"/></g>
<g><path style="opacity:0.956" fill="#8f2ba6" d="M 229.5,317.5 C 229.667,328.838 229.5,340.172 229,351.5C 226.638,359.114 221.471,363.614 213.5,365C 203.629,367.044 195.629,364.21 189.5,356.5C 202.833,343.5 216.167,330.5 229.5,317.5 Z"/></g>
<g><path style="opacity:0.971" fill="#912ca7" d="M 41.5,343.5 C 42.3942,348.454 44.7276,352.62 48.5,356C 78.0606,372.941 107.394,390.108 136.5,407.5C 125.833,417.5 115.5,427.833 105.5,438.5C 71.5517,419.197 37.885,399.53 4.5,379.5C 16.8333,367.5 29.1667,355.5 41.5,343.5 Z"/></g>
<g><path style="opacity:0.978" fill="#8e2ca6" d="M 136.5,407.5 C 137.492,407.328 138.158,407.662 138.5,408.5C 127.833,418.5 117.5,428.833 107.5,439.5C 106.833,439.167 106.167,438.833 105.5,438.5C 115.5,427.833 125.833,417.5 136.5,407.5 Z"/></g>
</svg>
